<svg width="14" height="10" viewBox="0 0 14 10" fill="none" xmlns="http://www.w3.org/2000/svg">
<path d="M11.1273 0H1.8884C0.852826 0 0 0.895522 0 1.98294V8.01706C0 9.10448 0.852826 10 1.8884 10H11.1273C12.1629 10 13.0157 9.10448 13.0157 8.01706V1.98294C13.0157 0.895522 12.1629 0 11.1273 0ZM11.1273 1.0661C11.1273 1.0661 11.2086 1.0661 11.2492 1.08742L6.4165 5.65032L1.74626 1.08742C1.74626 1.08742 1.82748 1.0661 1.8884 1.0661H11.1273ZM12.0005 8.01706C12.0005 8.52878 11.6147 8.9339 11.1273 8.9339H1.8884C1.40107 8.9339 1.01527 8.52878 1.01527 8.01706V1.98294C1.01527 1.98294 1.01527 1.89765 1.03557 1.85501L6.051 6.75906C6.051 6.75906 6.27436 6.90832 6.39619 6.90832C6.51803 6.90832 6.63986 6.86567 6.74138 6.78038L11.9599 1.85501C11.9599 1.85501 11.9802 1.9403 11.9802 1.98294V8.01706H12.0005Z" fill="black"/>
</svg>
