<svg width="11" height="10" viewBox="0 0 11 10" fill="none" xmlns="http://www.w3.org/2000/svg">
<path d="M8.06647 7C7.71054 7.76271 6.72749 8.0339 6.72749 8.0339C4.47325 8.22034 2.81224 6.40678 2.37156 5.35593C1.77834 3.94915 2.11732 2.9661 2.11732 2.9661C2.50715 0.59322 5.25291 2.66102 4.558 3.50847C4.13427 4.0339 3.89698 4.62712 4.26986 5.44068C4.64274 6.25424 6.15122 6.30508 6.4902 5.81356C7.11732 4.9322 8.4563 6.11864 8.04952 7M10.0156 5C10.0156 2.23729 7.77834 0 5.01562 0C2.25291 0 0.015625 2.23729 0.015625 5C0.015625 7.76271 2.25291 10 5.01562 10C7.77834 10 10.0156 7.76271 10.0156 5Z" fill="black"/>
</svg>
