<svg width="11" height="11" viewBox="0 0 11 11" fill="none" xmlns="http://www.w3.org/2000/svg">
<circle cx="5.5" cy="5.5" r="5.5" fill="#2D58A7"/>
<path d="M4.88972 7.02689C4.86355 6.94391 4.83925 6.83868 4.81869 6.70714C4.79813 6.5756 4.78879 6.44608 4.78879 6.31657C4.78879 6.11419 4.82617 5.93206 4.90093 5.76814C4.9757 5.60422 5.06729 5.45244 5.17944 5.31078C5.29159 5.16912 5.41121 5.03151 5.54393 4.89997C5.67664 4.76843 5.79626 4.63689 5.90841 4.5013C6.02056 4.36571 6.11215 4.22608 6.18692 4.07835C6.26168 3.93062 6.29907 3.76872 6.29907 3.59266C6.29907 3.44088 6.2729 3.30731 6.21869 3.18994C6.16449 3.07256 6.09159 2.97543 5.99813 2.8965C5.90467 2.81758 5.79626 2.75889 5.67477 2.71842C5.55327 2.67794 5.42243 2.65973 5.28411 2.65973C4.79065 2.65973 4.36262 2.87019 4 3.29112V2.45533C4.44299 2.15178 4.90654 2 5.38505 2C5.60748 2 5.81495 2.03238 6.01121 2.09511C6.20748 2.15785 6.37757 2.25296 6.52523 2.37641C6.6729 2.49986 6.78878 2.6577 6.8729 2.84389C6.95701 3.03007 7 3.2466 7 3.4935C7 3.74039 6.96262 3.93669 6.88598 4.11882C6.80935 4.30095 6.71402 4.47095 6.59813 4.62475C6.48224 4.77855 6.35701 4.92021 6.2243 5.05377C6.09159 5.18734 5.96449 5.31888 5.85047 5.45042C5.73645 5.58196 5.63925 5.71755 5.56262 5.86123C5.48598 6.00491 5.4486 6.16074 5.4486 6.33073C5.4486 6.47644 5.46542 6.60798 5.4972 6.72738C5.52897 6.84678 5.56075 6.94594 5.59439 7.02891H4.88972V7.02689ZM5.28411 9C5.15514 9 5.04112 8.94941 4.94206 8.84822C4.84486 8.74704 4.79813 8.62359 4.79813 8.47788C4.79813 8.33218 4.84673 8.20671 4.94206 8.10755C5.03925 8.00231 5.1514 7.95172 5.28411 7.95172C5.41682 7.95172 5.52897 8.00434 5.62617 8.10755C5.72336 8.20468 5.77009 8.32813 5.77009 8.47788C5.77009 8.62764 5.7215 8.74704 5.62617 8.84822C5.5271 8.94941 5.41308 9 5.28411 9Z" fill="white"/>
</svg>