<svg width="26" height="26" viewBox="0 0 26 26" fill="none" xmlns="http://www.w3.org/2000/svg">
<circle cx="12.8823" cy="12.6274" r="12.6274" fill="black"/>
<path d="M19.3885 5.23327C18.6712 4.75117 17.7147 5.15292 17.4756 5.23327L4.244 10.9381C3.52663 11.1792 2.88896 11.822 2.96867 12.7058C3.04838 13.5093 3.68604 13.9914 4.244 14.2325L7.1932 15.277C7.43233 16.7233 7.91057 19.4552 8.06999 20.0177C8.30911 20.7408 8.38882 20.9015 8.38882 20.9015C8.62795 21.0622 8.94678 21.2229 9.26561 21.1426L13.0119 19.4552L15.0046 21.1426C15.0046 21.1426 15.6423 21.3836 15.9611 21.3836C16.2799 21.3836 16.4393 21.3836 16.5988 21.2229C17.3161 20.9015 17.635 20.1784 17.7147 19.857L20.1059 6.75992V6.59922C20.1059 6.03677 19.8668 5.55467 19.4683 5.23327H19.3885ZM15.722 18.9731L10.6206 14.7146C12.5336 12.7862 15.4828 9.89357 15.722 9.73287C15.9611 9.49182 15.8814 9.41147 15.8814 9.41147C15.8814 9.09007 15.4031 9.41147 15.4031 9.41147L8.38882 13.5093H8.22941L5.75845 12.5451L17.7944 7.48307L15.722 19.0535V18.9731Z" fill="white"/>
</svg>
