<svg width="26" height="26" viewBox="0 0 26 26" fill="none" xmlns="http://www.w3.org/2000/svg">
<circle cx="12.6274" cy="12.6274" r="12.6274" fill="black"/>
<path d="M4 8.67743C4 8.67743 4.18897 8.48388 4.37794 8.3871C4.37794 8.3871 4.56691 8.3871 4.6614 8.3871C5.41728 8.3871 6.17316 8.48388 6.92904 8.3871C7.30698 8.3871 7.49595 8.58065 7.68492 8.87098C7.87389 9.35486 8.15735 9.83873 8.34632 10.3226C8.72426 11 9.1022 11.7742 9.57463 12.3549C9.66911 12.5484 9.85808 12.6452 9.95257 12.742C10.236 12.9356 10.425 12.8388 10.614 12.5484C10.614 12.3549 10.7084 12.0646 10.8029 11.871C10.8029 11.0968 10.8029 10.2258 10.8029 9.45163C10.8029 9.06453 10.5195 8.7742 10.0471 8.67743C9.7636 8.67743 9.7636 8.58065 9.95257 8.29033C10.1415 8.09678 10.425 8 10.7084 8H13.4485C13.4485 8 14.1099 8.29033 14.1099 8.87098C14.1099 9.93551 14.1099 10.9033 14.1099 11.9678C14.1099 12.1613 14.1099 12.2581 14.1099 12.4517C14.1099 12.4517 14.1099 12.6452 14.2044 12.742C14.3934 12.9356 14.5823 13.0323 14.7713 12.742C14.9603 12.5484 15.1493 12.3549 15.2437 12.1613C15.9996 11.1936 16.5665 10.0323 17.039 8.96776C17.039 8.96776 17.039 8.7742 17.1334 8.67743C17.1334 8.48388 17.4169 8.3871 17.6059 8.29033H20.3459C20.3459 8.29033 20.6294 8.29033 20.8184 8.29033C21.1018 8.29033 21.1963 8.58065 21.1018 8.87098C21.0073 9.35486 20.8184 9.74196 20.5349 10.1291C19.8735 11 19.3066 11.871 18.6452 12.8388C18.5507 13.0323 18.4562 13.1291 18.3617 13.3227C18.2673 13.613 18.2673 13.8065 18.3617 14.0001C18.4562 14.1936 18.5507 14.2904 18.7397 14.3872C19.2121 14.8711 19.779 15.4517 20.2515 15.9356C20.5349 16.2259 20.7239 16.5162 20.9128 16.9033C20.9128 17.0001 21.0073 17.1937 21.0073 17.2904C21.0073 17.6776 20.8184 17.9679 20.4404 17.9679H17.7948C17.2279 17.9679 16.7555 17.6776 16.3776 17.1937C15.9996 16.8066 15.6217 16.4195 15.2437 15.9356C15.2437 15.8388 15.0548 15.742 14.9603 15.6453C14.5823 15.4517 14.2989 15.4517 14.1099 15.8388C14.0154 16.1291 13.9209 16.4195 13.8265 16.8066C13.8265 16.9033 13.8265 17.0969 13.8265 17.2904C13.8265 17.6776 13.6375 17.8711 13.2595 17.8711C11.6533 17.9679 10.236 17.6776 8.91323 16.8066C8.06286 16.2259 7.49595 15.4517 6.83456 14.6775C6.07867 13.2259 5.13382 11.3871 4.28346 9.54841C4.28346 9.35486 4.09449 9.06453 4 8.87098V8.67743Z" fill="white"/>
</svg>
